<svg id="svg" version="1.1" width="400" height="71.976401179941" viewBox="0 0 400 71.976401179941" xmlns="http://www.w3.org/2000/svg" xmlns:xlink="http://www.w3.org/1999/xlink" ><g id="svgg"><path id="path0" d="M183.577 3.208 C 183.533 3.323,183.517 11.517,183.540 21.417 L 183.583 39.417 184.118 39.468 L 184.652 39.520 184.701 40.635 L 184.750 41.750 185.282 41.801 C 185.745 41.846,185.820 41.922,185.865 42.385 C 185.912 42.868,185.974 42.921,186.542 42.968 C 187.133 43.017,187.167 43.051,187.167 43.593 C 187.167 44.137,187.196 44.167,187.750 44.167 C 188.306 44.167,188.333 44.194,188.333 44.750 L 188.333 45.333 190.667 45.333 L 193.000 45.333 193.000 45.917 L 193.000 46.500 201.250 46.500 L 209.500 46.500 209.500 45.917 L 209.500 45.333 211.250 45.333 L 213.000 45.333 213.000 44.750 C 213.000 44.194,213.028 44.167,213.583 44.167 C 214.139 44.167,214.167 44.139,214.167 43.583 C 214.167 43.028,214.194 43.000,214.750 43.000 C 215.306 43.000,215.333 42.972,215.333 42.417 C 215.333 41.861,215.361 41.833,215.917 41.833 L 216.500 41.833 216.500 40.667 L 216.500 39.500 217.083 39.500 L 217.667 39.500 217.667 30.083 L 217.667 20.667 217.083 20.667 C 216.528 20.667,216.500 20.639,216.500 20.083 C 216.500 19.528,216.472 19.500,215.917 19.500 L 215.333 19.500 215.333 18.333 L 215.333 17.167 214.167 17.167 L 213.000 17.167 213.000 16.583 L 213.000 16.000 211.833 16.000 L 210.667 16.000 210.667 15.417 L 210.667 14.833 202.417 14.833 L 194.167 14.833 194.167 18.917 L 194.167 23.000 200.667 23.000 L 207.167 23.000 207.167 23.583 L 207.167 24.167 208.333 24.167 L 209.500 24.167 209.500 30.083 L 209.500 36.000 208.917 36.000 C 208.361 36.000,208.333 36.028,208.333 36.583 L 208.333 37.167 200.667 37.167 L 193.000 37.167 193.000 36.583 C 193.000 36.014,192.984 36.000,192.333 36.000 L 191.667 36.000 191.667 19.500 L 191.667 3.000 187.661 3.000 C 184.611 3.000,183.637 3.050,183.577 3.208 M305.167 10.080 L 305.167 14.833 300.417 14.833 L 295.667 14.833 295.667 18.917 L 295.667 23.000 299.739 23.000 L 303.812 23.000 303.864 23.542 C 303.912 24.036,303.971 24.088,304.542 24.135 L 305.167 24.187 305.167 35.343 L 305.167 46.500 309.250 46.500 L 313.333 46.500 313.333 35.344 L 313.333 24.188 313.875 24.136 C 314.351 24.090,314.423 24.018,314.469 23.544 L 314.521 23.004 320.385 22.960 L 326.250 22.917 326.295 18.875 L 326.339 14.833 319.839 14.833 L 313.339 14.833 313.294 10.125 L 313.250 5.417 309.208 5.372 L 305.167 5.327 305.167 10.080 M38.500 14.250 L 38.500 14.833 36.083 14.833 L 33.667 14.833 33.667 15.417 L 33.667 16.000 32.500 16.000 L 31.333 16.000 31.333 16.583 L 31.333 17.167 30.167 17.167 L 29.000 17.167 29.000 17.750 C 29.000 18.306,28.972 18.333,28.417 18.333 C 27.861 18.333,27.833 18.361,27.833 18.917 C 27.833 19.472,27.806 19.500,27.250 19.500 C 26.694 19.500,26.667 19.528,26.667 20.083 C 26.667 20.639,26.639 20.667,26.083 20.667 C 25.528 20.667,25.500 20.694,25.500 21.250 C 25.500 21.806,25.472 21.833,24.917 21.833 C 24.363 21.833,24.333 21.863,24.333 22.407 C 24.333 22.949,24.299 22.983,23.708 23.032 L 23.083 23.083 23.034 24.198 L 22.985 25.313 22.451 25.365 L 21.917 25.417 21.868 26.532 L 21.819 27.647 21.284 27.698 C 20.798 27.745,20.745 27.806,20.698 28.375 L 20.647 29.000 17.157 29.000 L 13.667 29.000 13.667 29.583 L 13.667 30.167 12.500 30.167 L 11.333 30.167 11.333 30.750 L 11.333 31.333 10.167 31.333 L 9.000 31.333 9.000 31.917 C 9.000 32.486,8.984 32.500,8.333 32.500 C 7.683 32.500,7.667 32.514,7.667 33.083 C 7.667 33.639,7.639 33.667,7.083 33.667 C 6.528 33.667,6.500 33.694,6.500 34.250 C 6.500 34.806,6.472 34.833,5.917 34.833 L 5.333 34.833 5.333 36.000 L 5.333 37.167 4.750 37.167 L 4.167 37.167 4.167 38.323 L 4.167 39.479 3.625 39.531 L 3.083 39.583 3.040 45.375 L 2.996 51.167 3.581 51.167 L 4.167 51.167 4.167 52.333 L 4.167 53.500 4.740 53.500 C 5.282 53.500,5.316 53.534,5.365 54.125 C 5.412 54.694,5.465 54.755,5.951 54.802 L 6.485 54.853 6.534 55.968 L 6.583 57.083 7.115 57.135 C 7.578 57.180,7.654 57.255,7.699 57.718 L 7.750 58.250 8.958 58.299 L 10.167 58.348 10.167 58.924 L 10.167 59.500 11.333 59.500 L 12.500 59.500 12.500 60.083 L 12.500 60.667 14.250 60.667 L 16.000 60.667 16.000 61.250 L 16.000 61.833 18.917 61.833 L 21.833 61.833 21.833 61.250 L 21.833 60.667 24.167 60.667 L 26.500 60.667 26.500 60.083 C 26.500 59.528,26.528 59.500,27.083 59.500 C 27.639 59.500,27.667 59.472,27.667 58.917 C 27.667 58.347,27.683 58.333,28.333 58.333 C 28.984 58.333,29.000 58.347,29.000 58.917 C 29.000 59.472,29.028 59.500,29.583 59.500 C 30.140 59.500,30.167 59.527,30.167 60.089 L 30.167 60.678 31.875 60.631 L 33.583 60.583 33.583 59.500 L 33.583 58.417 33.042 58.364 L 32.500 58.312 32.500 57.156 L 32.500 56.000 31.917 56.000 L 31.333 56.000 31.333 54.833 L 31.333 53.667 30.750 53.667 L 30.167 53.667 30.167 52.500 L 30.167 51.333 29.500 51.333 C 28.849 51.333,28.833 51.319,28.833 50.750 C 28.833 50.194,28.806 50.167,28.250 50.167 C 27.694 50.167,27.667 50.139,27.667 49.583 C 27.667 49.028,27.639 49.000,27.083 49.000 C 26.530 49.000,26.500 48.971,26.500 48.427 C 26.500 47.887,26.463 47.850,25.875 47.788 L 25.250 47.723 25.875 47.695 C 26.473 47.668,26.500 47.641,26.500 47.083 L 26.500 46.500 27.667 46.500 L 28.833 46.500 28.833 45.917 L 28.833 45.333 30.083 45.333 L 31.333 45.333 31.333 45.917 C 31.333 46.472,31.361 46.500,31.917 46.500 C 32.472 46.500,32.500 46.528,32.500 47.083 C 32.500 47.639,32.528 47.667,33.083 47.667 C 33.639 47.667,33.667 47.694,33.667 48.250 C 33.667 48.806,33.694 48.833,34.250 48.833 L 34.833 48.833 34.833 50.000 L 34.833 51.167 35.417 51.167 C 35.972 51.167,36.000 51.194,36.000 51.750 L 36.000 52.333 37.167 52.333 L 38.333 52.333 38.333 51.750 C 38.333 51.194,38.361 51.167,38.917 51.167 L 39.500 51.167 39.500 50.000 L 39.500 48.833 40.083 48.833 C 40.639 48.833,40.667 48.806,40.667 48.250 C 40.667 47.694,40.694 47.667,41.250 47.667 C 41.806 47.667,41.833 47.639,41.833 47.083 C 41.833 46.528,41.861 46.500,42.417 46.500 L 43.000 46.500 43.000 45.333 L 43.000 44.167 43.583 44.167 C 44.137 44.167,44.167 44.137,44.167 43.593 C 44.167 43.051,44.201 43.017,44.792 42.968 C 45.360 42.921,45.421 42.868,45.468 42.385 C 45.513 41.922,45.588 41.846,46.051 41.801 C 46.515 41.757,46.590 41.681,46.635 41.218 C 46.680 40.755,46.755 40.680,47.218 40.635 C 47.681 40.590,47.757 40.515,47.801 40.051 C 47.846 39.588,47.922 39.513,48.385 39.468 C 48.848 39.423,48.923 39.348,48.968 38.885 C 49.013 38.422,49.088 38.346,49.551 38.301 C 50.017 38.256,50.090 38.182,50.136 37.708 C 50.183 37.212,50.236 37.167,50.761 37.167 C 51.318 37.167,51.333 37.148,51.333 36.500 C 51.333 35.849,51.347 35.833,51.917 35.833 C 52.472 35.833,52.500 35.806,52.500 35.250 C 52.500 34.694,52.528 34.667,53.083 34.667 C 53.639 34.667,53.667 34.639,53.667 34.083 C 53.667 33.528,53.694 33.500,54.250 33.500 C 54.806 33.500,54.833 33.472,54.833 32.917 C 54.833 32.361,54.861 32.333,55.417 32.333 C 55.972 32.333,56.000 32.306,56.000 31.750 C 56.000 31.194,56.028 31.167,56.583 31.167 C 57.139 31.167,57.167 31.139,57.167 30.583 C 57.167 30.028,57.194 30.000,57.750 30.000 C 58.306 30.000,58.333 29.972,58.333 29.417 L 58.333 28.833 59.583 28.833 L 60.833 28.833 60.833 28.250 C 60.833 27.694,60.861 27.667,61.417 27.667 C 61.972 27.667,62.000 27.639,62.000 27.083 C 62.000 26.528,62.028 26.500,62.583 26.500 C 63.137 26.500,63.167 26.471,63.167 25.927 C 63.167 25.403,63.212 25.350,63.708 25.302 L 64.250 25.250 64.250 24.167 L 64.250 23.083 63.718 23.032 C 63.255 22.987,63.180 22.912,63.135 22.449 C 63.090 21.983,63.016 21.910,62.542 21.864 L 62.000 21.812 62.000 20.656 L 62.000 19.500 61.417 19.500 C 60.861 19.500,60.833 19.472,60.833 18.917 C 60.833 18.361,60.806 18.333,60.250 18.333 C 59.694 18.333,59.667 18.306,59.667 17.750 L 59.667 17.167 58.417 17.167 L 57.167 17.167 57.167 16.583 L 57.167 16.000 56.000 16.000 L 54.833 16.000 54.833 15.417 L 54.833 14.833 53.083 14.833 L 51.333 14.833 51.333 14.250 L 51.333 13.667 44.917 13.667 L 38.500 13.667 38.500 14.250 M108.000 15.417 C 108.000 15.972,107.972 16.000,107.417 16.000 C 106.861 16.000,106.833 16.028,106.833 16.583 C 106.833 17.139,106.806 17.167,106.250 17.167 L 105.667 17.167 105.667 31.833 L 105.667 46.500 109.750 46.500 L 113.833 46.500 113.833 35.333 L 113.833 24.167 114.417 24.167 C 114.972 24.167,115.000 24.139,115.000 23.583 L 115.000 23.000 121.000 23.000 L 127.000 23.000 127.000 23.583 L 127.000 24.167 128.167 24.167 L 129.333 24.167 129.333 24.750 C 129.333 25.306,129.361 25.333,129.917 25.333 L 130.500 25.333 130.500 26.500 L 130.500 27.667 131.083 27.667 L 131.667 27.667 131.667 37.083 L 131.667 46.500 135.167 46.500 L 138.667 46.500 138.667 45.917 C 138.667 45.361,138.694 45.333,139.250 45.333 L 139.833 45.333 139.833 34.750 L 139.833 24.167 139.258 24.167 L 138.682 24.167 138.633 23.042 L 138.583 21.917 138.042 21.864 L 137.500 21.812 137.500 20.656 L 137.500 19.500 136.917 19.500 C 136.361 19.500,136.333 19.472,136.333 18.917 C 136.333 18.361,136.306 18.333,135.750 18.333 C 135.194 18.333,135.167 18.306,135.167 17.750 L 135.167 17.167 133.917 17.167 L 132.667 17.167 132.667 16.583 L 132.667 16.000 130.917 16.000 L 129.167 16.000 129.167 15.417 L 129.167 14.833 118.583 14.833 L 108.000 14.833 108.000 15.417 M144.667 26.583 L 144.667 38.333 145.250 38.333 L 145.833 38.333 145.833 39.500 L 145.833 40.667 146.417 40.667 C 146.972 40.667,147.000 40.694,147.000 41.250 C 147.000 41.806,147.028 41.833,147.583 41.833 C 148.139 41.833,148.167 41.861,148.167 42.417 C 148.167 42.972,148.194 43.000,148.750 43.000 C 149.306 43.000,149.333 43.028,149.333 43.583 L 149.333 44.167 150.500 44.167 L 151.667 44.167 151.667 44.750 L 151.667 45.333 154.083 45.333 L 156.500 45.333 156.500 45.917 L 156.500 46.500 165.833 46.500 L 175.167 46.500 175.167 45.917 L 175.167 45.333 176.333 45.333 L 177.500 45.333 177.500 44.750 C 177.500 44.181,177.516 44.167,178.167 44.167 L 178.833 44.167 178.833 29.500 L 178.833 14.833 174.667 14.833 L 170.500 14.833 170.500 15.417 C 170.500 15.974,170.473 16.000,169.909 16.000 L 169.318 16.000 169.367 17.125 L 169.417 18.250 169.958 18.302 L 170.500 18.354 170.500 27.761 L 170.500 37.167 162.833 37.167 L 155.167 37.167 155.167 36.583 C 155.167 36.028,155.139 36.000,154.583 36.000 C 154.028 36.000,154.000 35.972,154.000 35.417 C 154.000 34.861,153.972 34.833,153.417 34.833 L 152.833 34.833 152.833 24.833 L 152.833 14.833 148.750 14.833 L 144.667 14.833 144.667 26.583 M229.500 15.417 L 229.500 16.000 227.750 16.000 L 226.000 16.000 226.000 16.583 C 226.000 17.139,225.972 17.167,225.417 17.167 C 224.861 17.167,224.833 17.194,224.833 17.750 C 224.833 18.306,224.806 18.333,224.250 18.333 L 223.667 18.333 223.667 19.500 L 223.667 20.667 223.083 20.667 L 222.500 20.667 222.500 30.667 L 222.500 40.667 223.083 40.667 L 223.667 40.667 223.667 41.833 L 223.667 43.000 224.250 43.000 C 224.806 43.000,224.833 43.028,224.833 43.583 L 224.833 44.167 226.000 44.167 L 227.167 44.167 227.167 44.750 L 227.167 45.333 229.000 45.333 L 230.833 45.333 230.833 45.917 L 230.833 46.500 238.417 46.500 L 246.000 46.500 246.000 42.417 L 246.000 38.333 238.917 38.333 L 231.833 38.333 231.833 37.750 C 231.833 37.194,231.806 37.167,231.250 37.167 L 230.667 37.167 230.667 30.667 L 230.667 24.167 231.250 24.167 C 231.806 24.167,231.833 24.139,231.833 23.583 L 231.833 23.000 239.000 23.000 L 246.167 23.000 246.167 23.583 C 246.167 24.139,246.194 24.167,246.750 24.167 L 247.333 24.167 247.333 25.917 L 247.333 27.667 239.667 27.667 L 232.000 27.667 232.000 31.750 L 232.000 35.833 240.750 35.833 L 249.500 35.833 249.500 35.250 L 249.500 34.667 250.750 34.667 L 252.000 34.667 252.000 34.083 C 252.000 33.528,252.028 33.500,252.583 33.500 C 253.139 33.500,253.167 33.472,253.167 32.917 C 253.167 32.361,253.194 32.333,253.750 32.333 C 254.306 32.333,254.333 32.306,254.333 31.750 C 254.333 31.194,254.361 31.167,254.919 31.167 L 255.505 31.167 255.461 25.958 L 255.417 20.750 254.875 20.698 L 254.333 20.646 254.333 19.489 L 254.333 18.333 253.750 18.333 C 253.194 18.333,253.167 18.306,253.167 17.750 C 253.167 17.194,253.139 17.167,252.583 17.167 C 252.028 17.167,252.000 17.139,252.000 16.583 L 252.000 16.000 250.167 16.000 L 248.333 16.000 248.333 15.417 L 248.333 14.833 238.917 14.833 L 229.500 14.833 229.500 15.417 M261.500 15.417 C 261.500 15.972,261.472 16.000,260.917 16.000 C 260.361 16.000,260.333 16.028,260.333 16.583 C 260.333 17.153,260.317 17.167,259.667 17.167 L 259.000 17.167 259.000 31.250 L 259.000 45.333 259.667 45.333 C 260.317 45.333,260.333 45.347,260.333 45.917 L 260.333 46.500 263.833 46.500 L 267.333 46.500 267.333 45.917 C 267.333 45.360,267.360 45.333,267.924 45.333 L 268.515 45.333 268.466 44.208 L 268.417 43.083 267.875 43.031 L 267.333 42.979 267.333 35.906 L 267.333 28.833 267.928 28.833 L 268.522 28.833 268.499 26.458 C 268.486 25.152,268.481 23.840,268.488 23.542 L 268.500 23.000 274.417 23.000 L 280.333 23.000 280.333 23.583 L 280.333 24.167 281.500 24.167 L 282.667 24.167 282.667 24.750 C 282.667 25.306,282.694 25.333,283.250 25.333 C 283.806 25.333,283.833 25.361,283.833 25.917 C 283.833 26.472,283.861 26.500,284.417 26.500 L 285.000 26.500 285.000 35.917 L 285.000 45.333 285.583 45.333 C 286.139 45.333,286.167 45.361,286.167 45.917 L 286.167 46.500 289.667 46.500 L 293.167 46.500 293.167 34.750 L 293.167 23.000 292.583 23.000 L 292.000 23.000 292.000 21.833 L 292.000 20.667 291.417 20.667 C 290.861 20.667,290.833 20.639,290.833 20.083 C 290.833 19.528,290.806 19.500,290.250 19.500 C 289.694 19.500,289.667 19.472,289.667 18.917 C 289.667 18.361,289.639 18.333,289.083 18.333 C 288.528 18.333,288.500 18.306,288.500 17.750 L 288.500 17.167 287.333 17.167 L 286.167 17.167 286.167 16.583 L 286.167 16.000 284.417 16.000 L 282.667 16.000 282.667 15.417 L 282.667 14.833 272.083 14.833 L 261.500 14.833 261.500 15.417 M335.833 15.417 L 335.833 16.000 334.583 16.000 L 333.333 16.000 333.333 16.583 L 333.333 17.167 332.167 17.167 L 331.000 17.167 331.000 18.333 L 331.000 19.500 330.417 19.500 C 329.863 19.500,329.833 19.529,329.833 20.073 C 329.833 20.597,329.788 20.650,329.292 20.698 L 328.750 20.750 328.750 30.667 L 328.750 40.583 329.282 40.635 C 329.745 40.680,329.820 40.755,329.865 41.218 C 329.910 41.681,329.985 41.757,330.449 41.801 C 330.912 41.846,330.987 41.922,331.032 42.385 C 331.077 42.850,331.151 42.923,331.625 42.969 C 332.121 43.017,332.167 43.070,332.167 43.594 C 332.167 44.137,332.196 44.167,332.750 44.167 C 333.306 44.167,333.333 44.194,333.333 44.750 L 333.333 45.333 335.750 45.333 L 338.167 45.333 338.167 45.917 L 338.167 46.500 345.750 46.500 L 353.333 46.500 353.333 45.917 L 353.333 45.333 355.750 45.333 L 358.167 45.333 358.167 44.750 C 358.167 44.194,358.194 44.167,358.750 44.167 C 359.304 44.167,359.333 44.137,359.333 43.594 C 359.333 43.070,359.379 43.017,359.875 42.969 C 360.349 42.923,360.423 42.850,360.468 42.385 C 360.513 41.922,360.588 41.846,361.051 41.801 L 361.583 41.750 361.633 40.625 L 361.682 39.500 362.258 39.500 L 362.833 39.500 362.833 30.667 L 362.833 21.833 362.250 21.833 L 361.667 21.833 361.667 20.667 L 361.667 19.500 361.083 19.500 C 360.528 19.500,360.500 19.472,360.500 18.917 C 360.500 18.361,360.472 18.333,359.917 18.333 C 359.361 18.333,359.333 18.306,359.333 17.750 C 359.333 17.194,359.306 17.167,358.750 17.167 C 358.194 17.167,358.167 17.139,358.167 16.583 L 358.167 16.000 357.000 16.000 L 355.833 16.000 355.833 15.417 L 355.833 14.833 345.833 14.833 L 335.833 14.833 335.833 15.417 M372.333 15.417 L 372.333 16.000 371.167 16.000 L 370.000 16.000 370.000 16.583 C 370.000 17.139,369.972 17.167,369.417 17.167 C 368.861 17.167,368.833 17.194,368.833 17.750 C 368.833 18.306,368.806 18.333,368.250 18.333 L 367.667 18.333 367.667 19.500 L 367.667 20.667 367.083 20.667 L 366.500 20.667 366.500 24.167 L 366.500 27.667 367.083 27.667 L 367.667 27.667 367.667 28.833 L 367.667 30.000 368.250 30.000 C 368.806 30.000,368.833 30.028,368.833 30.583 C 368.833 31.139,368.861 31.167,369.417 31.167 C 369.972 31.167,370.000 31.194,370.000 31.750 L 370.000 32.333 371.750 32.333 L 373.500 32.333 373.500 32.917 L 373.500 33.500 381.167 33.500 L 388.833 33.500 388.833 35.333 L 388.833 37.167 378.250 37.167 L 367.667 37.167 367.667 37.750 C 367.667 38.306,367.639 38.333,367.083 38.333 L 366.500 38.333 366.500 41.833 L 366.500 45.333 367.083 45.333 C 367.639 45.333,367.667 45.361,367.667 45.917 L 367.667 46.500 378.250 46.500 L 388.833 46.500 388.833 45.917 L 388.833 45.333 390.583 45.333 L 392.333 45.333 392.333 44.750 L 392.333 44.167 393.500 44.167 L 394.667 44.167 394.667 43.583 C 394.667 43.028,394.694 43.000,395.250 43.000 L 395.833 43.000 395.833 41.833 L 395.833 40.667 396.417 40.667 L 397.000 40.667 397.000 35.417 L 397.000 30.167 396.417 30.167 L 395.833 30.167 395.833 28.917 L 395.833 27.667 395.250 27.667 C 394.694 27.667,394.667 27.639,394.667 27.083 L 394.667 26.500 393.500 26.500 L 392.333 26.500 392.333 25.917 L 392.333 25.333 390.594 25.333 L 388.854 25.333 388.802 24.792 L 388.750 24.250 382.242 24.206 L 375.734 24.163 375.802 23.581 L 375.870 23.000 384.685 23.000 L 393.500 23.000 393.500 18.917 L 393.500 14.833 382.917 14.833 L 372.333 14.833 372.333 15.417 M352.333 23.583 C 352.333 24.139,352.361 24.167,352.917 24.167 C 353.472 24.167,353.500 24.194,353.500 24.750 C 353.500 25.306,353.528 25.333,354.083 25.333 L 354.667 25.333 354.667 30.667 L 354.667 36.000 354.083 36.000 C 353.528 36.000,353.500 36.028,353.500 36.583 L 353.500 37.167 345.750 37.167 L 338.000 37.167 338.000 36.583 C 338.000 36.028,337.972 36.000,337.417 36.000 L 336.833 36.000 336.833 30.083 L 336.833 24.167 338.000 24.167 L 339.167 24.167 339.167 23.583 L 339.167 23.000 345.750 23.000 L 352.333 23.000 352.333 23.583 M65.611 25.444 C 65.550 25.506,65.500 25.765,65.500 26.020 C 65.500 26.478,65.483 26.486,64.375 26.534 L 63.250 26.583 63.199 27.115 C 63.154 27.578,63.078 27.654,62.615 27.699 C 62.132 27.745,62.079 27.807,62.032 28.375 C 61.983 28.966,61.949 29.000,61.407 29.000 C 60.863 29.000,60.833 29.030,60.833 29.583 C 60.833 30.139,60.806 30.167,60.250 30.167 C 59.694 30.167,59.667 30.194,59.667 30.750 C 59.667 31.306,59.639 31.333,59.083 31.333 C 58.528 31.333,58.500 31.361,58.500 31.917 C 58.500 32.472,58.472 32.500,57.917 32.500 C 57.361 32.500,57.333 32.528,57.333 33.083 C 57.333 33.639,57.306 33.667,56.750 33.667 L 56.167 33.667 56.167 34.833 L 56.167 36.000 55.583 36.000 C 55.028 36.000,55.000 36.028,55.000 36.583 C 55.000 37.139,54.972 37.167,54.417 37.167 C 53.863 37.167,53.833 37.196,53.833 37.740 C 53.833 38.282,53.799 38.316,53.208 38.365 C 52.640 38.412,52.579 38.465,52.532 38.949 C 52.487 39.412,52.412 39.487,51.949 39.532 L 51.417 39.583 51.368 40.698 L 51.319 41.813 50.784 41.865 C 50.319 41.910,50.243 41.985,50.199 42.449 C 50.154 42.912,50.078 42.987,49.615 43.032 C 49.152 43.077,49.077 43.152,49.032 43.615 C 48.987 44.078,48.912 44.154,48.449 44.199 L 47.917 44.250 47.868 45.458 L 47.819 46.667 47.243 46.667 C 46.695 46.667,46.667 46.696,46.667 47.250 C 46.667 47.806,46.639 47.833,46.083 47.833 L 45.500 47.833 45.500 49.000 L 45.500 50.167 44.917 50.167 C 44.361 50.167,44.333 50.194,44.333 50.750 C 44.333 51.306,44.306 51.333,43.750 51.333 L 43.167 51.333 43.167 52.500 L 43.167 53.667 42.583 53.667 L 42.000 53.667 42.000 54.833 L 42.000 56.000 41.417 56.000 L 40.833 56.000 40.833 57.167 L 40.833 58.333 40.250 58.333 C 39.694 58.333,39.667 58.361,39.667 58.917 C 39.667 59.472,39.639 59.500,39.083 59.500 C 38.530 59.500,38.500 59.529,38.500 60.073 C 38.500 60.615,38.466 60.649,37.875 60.698 L 37.250 60.750 37.201 61.875 L 37.151 63.000 38.992 63.000 L 40.833 63.000 40.833 63.583 L 40.833 64.167 43.750 64.167 L 46.667 64.167 46.667 63.583 L 46.667 63.000 49.583 63.000 L 52.500 63.000 52.500 62.417 L 52.500 61.833 53.667 61.833 L 54.833 61.833 54.833 61.250 L 54.833 60.667 55.990 60.667 L 57.147 60.667 57.212 60.042 L 57.277 59.417 57.305 60.042 L 57.333 60.667 59.083 60.667 L 60.833 60.667 60.833 61.250 L 60.833 61.833 65.500 61.833 L 70.167 61.833 70.167 61.250 L 70.167 60.667 71.333 60.667 L 72.500 60.667 72.500 60.091 L 72.500 59.515 73.708 59.466 L 74.917 59.417 74.968 58.882 L 75.020 58.348 76.135 58.299 L 77.250 58.250 77.302 57.708 C 77.350 57.215,77.404 57.167,77.917 57.167 C 78.429 57.167,78.484 57.215,78.531 57.708 L 78.583 58.250 82.625 58.295 L 86.667 58.339 86.667 57.760 L 86.667 57.181 87.875 57.132 L 89.083 57.083 89.135 56.549 L 89.187 56.015 90.302 55.966 L 91.417 55.917 91.468 55.385 C 91.513 54.922,91.588 54.846,92.051 54.801 L 92.583 54.750 92.632 53.542 L 92.681 52.333 93.260 52.333 L 93.838 52.333 93.794 47.125 L 93.750 41.917 93.216 41.865 L 92.681 41.813 92.632 40.698 L 92.583 39.583 92.051 39.532 C 91.588 39.487,91.513 39.412,91.468 38.949 C 91.423 38.483,91.349 38.410,90.875 38.364 C 90.379 38.317,90.333 38.264,90.333 37.739 L 90.333 37.167 89.083 37.167 L 87.833 37.167 87.833 36.583 L 87.833 36.000 84.333 36.000 L 80.833 36.000 80.833 34.833 L 80.833 33.667 80.250 33.667 C 79.694 33.667,79.667 33.639,79.667 33.083 C 79.667 32.528,79.639 32.500,79.083 32.500 C 78.528 32.500,78.500 32.472,78.500 31.917 C 78.500 31.361,78.472 31.333,77.917 31.333 C 77.361 31.333,77.333 31.306,77.333 30.750 C 77.333 30.194,77.306 30.167,76.750 30.167 C 76.194 30.167,76.167 30.139,76.167 29.583 C 76.167 29.030,76.137 29.000,75.593 29.000 C 75.051 29.000,75.017 28.966,74.968 28.375 L 74.917 27.750 73.708 27.701 L 72.500 27.652 72.500 27.076 L 72.500 26.500 70.167 26.500 L 67.833 26.500 67.833 25.917 L 67.833 25.333 66.778 25.333 C 66.197 25.333,65.672 25.383,65.611 25.444 M143.500 61.250 L 143.500 66.500 145.167 66.500 L 146.833 66.500 146.833 63.000 L 146.833 59.500 146.250 59.500 C 145.694 59.500,145.667 59.472,145.667 58.917 C 145.667 58.361,145.694 58.333,146.250 58.333 L 146.833 58.333 146.833 57.167 L 146.833 56.000 145.167 56.000 L 143.500 56.000 143.500 61.250 M178.833 57.796 L 178.833 59.592 178.167 59.529 C 177.532 59.468,177.500 59.438,177.500 58.899 L 177.500 58.333 175.250 58.333 L 173.000 58.333 173.000 58.917 C 173.000 59.472,172.972 59.500,172.417 59.500 L 171.833 59.500 171.833 63.000 L 171.833 66.500 172.917 66.500 L 174.000 66.500 174.000 64.167 L 174.000 61.833 176.417 61.833 L 178.833 61.833 178.833 64.750 L 178.833 67.667 180.000 67.667 L 181.167 67.667 181.167 65.917 L 181.167 64.167 181.750 64.167 C 182.306 64.167,182.333 64.194,182.333 64.750 C 182.333 65.306,182.361 65.333,182.917 65.333 C 183.472 65.333,183.500 65.361,183.500 65.917 C 183.500 66.472,183.528 66.500,184.083 66.500 C 184.639 66.500,184.667 66.528,184.667 67.083 L 184.667 67.667 185.833 67.667 L 187.000 67.667 187.000 66.000 L 187.000 64.333 186.417 64.333 C 185.847 64.333,185.833 64.317,185.833 63.667 C 185.833 63.016,185.819 63.000,185.250 63.000 C 184.694 63.000,184.667 62.972,184.667 62.417 L 184.667 61.833 185.833 61.833 L 187.000 61.833 187.000 60.076 L 187.000 58.318 185.875 58.367 L 184.750 58.417 184.698 58.951 L 184.647 59.485 183.532 59.534 L 182.417 59.583 182.364 60.125 C 182.317 60.621,182.264 60.667,181.739 60.667 L 181.167 60.667 181.167 58.333 L 181.167 56.000 180.000 56.000 L 178.833 56.000 178.833 57.796 M198.833 57.159 L 198.833 58.318 197.708 58.367 L 196.583 58.417 196.534 59.007 C 196.462 59.857,195.384 59.800,195.301 58.941 L 195.250 58.417 192.375 58.371 L 189.500 58.325 189.500 58.913 C 189.500 59.473,189.473 59.500,188.917 59.500 C 188.361 59.500,188.333 59.528,188.333 60.083 C 188.333 60.639,188.306 60.667,187.750 60.667 L 187.167 60.667 187.167 63.000 L 187.167 65.333 187.750 65.333 C 188.306 65.333,188.333 65.361,188.333 65.917 C 188.333 66.472,188.361 66.500,188.917 66.500 C 189.472 66.500,189.500 66.528,189.500 67.083 L 189.500 67.667 190.573 67.667 L 191.647 67.667 191.712 67.042 L 191.777 66.417 191.805 67.042 L 191.833 67.667 193.000 67.667 L 194.167 67.667 194.167 66.010 L 194.167 64.353 193.542 64.288 C 193.198 64.252,193.723 64.210,194.708 64.195 L 196.500 64.167 196.500 63.000 L 196.500 61.833 197.667 61.833 L 198.833 61.833 198.833 64.750 L 198.833 67.667 200.000 67.667 L 201.167 67.667 201.167 64.750 L 201.167 61.833 202.417 61.833 L 203.667 61.833 203.667 65.333 L 203.667 68.833 205.333 68.833 L 207.000 68.833 207.000 67.667 L 207.000 66.500 210.000 66.500 L 213.000 66.500 213.000 65.917 C 213.000 65.361,213.028 65.333,213.583 65.333 C 214.139 65.333,214.167 65.361,214.167 65.917 L 214.167 66.500 215.917 66.500 L 217.667 66.500 217.667 65.417 L 217.667 64.333 217.083 64.333 L 216.500 64.333 216.500 60.167 L 216.500 56.000 214.750 56.000 L 213.000 56.000 213.000 57.800 L 213.000 59.600 212.426 59.533 C 211.921 59.474,211.846 59.402,211.801 58.941 L 211.750 58.417 208.875 58.371 L 206.000 58.325 206.000 58.913 C 206.000 59.471,205.972 59.500,205.427 59.500 C 204.887 59.500,204.850 59.537,204.788 60.125 L 204.723 60.750 204.695 60.125 C 204.668 59.527,204.641 59.500,204.083 59.500 C 203.528 59.500,203.500 59.472,203.500 58.917 L 203.500 58.333 202.333 58.333 L 201.167 58.333 201.167 57.167 L 201.167 56.000 200.000 56.000 L 198.833 56.000 198.833 57.159 M295.667 57.172 L 295.667 58.345 297.375 58.297 L 299.083 58.250 299.133 57.125 L 299.182 56.000 297.424 56.000 L 295.667 56.000 295.667 57.172 M305.139 57.792 C 305.123 58.777,305.081 59.300,305.045 58.954 L 304.979 58.324 302.698 58.370 L 300.417 58.417 300.364 58.958 C 300.305 59.577,300.467 59.547,297.458 59.502 L 295.667 59.475 295.667 62.987 L 295.667 66.500 301.500 66.500 L 307.333 66.500 307.333 65.917 C 307.333 65.361,307.361 65.333,307.917 65.333 L 308.500 65.333 308.500 60.667 L 308.500 56.000 306.833 56.000 L 305.167 56.000 305.139 57.792 M323.972 57.792 C 323.957 58.777,323.914 59.300,323.878 58.954 L 323.813 58.324 321.531 58.370 L 319.250 58.417 319.199 58.949 C 319.154 59.412,319.078 59.487,318.615 59.532 L 318.083 59.583 318.038 63.042 L 317.993 66.500 322.163 66.500 L 326.333 66.500 326.333 61.250 L 326.333 56.000 325.167 56.000 L 324.000 56.000 323.972 57.792 M105.778 58.444 C 105.717 58.506,105.667 58.768,105.667 59.028 L 105.667 59.500 104.500 59.500 L 103.333 59.500 103.333 61.250 L 103.333 63.000 103.917 63.000 C 104.471 63.000,104.500 63.028,104.500 63.579 L 104.500 64.158 106.875 64.209 L 109.250 64.260 106.292 64.297 L 103.333 64.333 103.333 65.417 L 103.333 66.500 103.917 66.500 C 104.472 66.500,104.500 66.528,104.500 67.083 L 104.500 67.667 105.667 67.667 L 106.833 67.667 106.833 67.083 L 106.833 66.500 109.167 66.500 L 111.500 66.500 111.500 65.917 C 111.500 65.347,111.516 65.333,112.167 65.333 C 112.817 65.333,112.833 65.347,112.833 65.917 L 112.833 66.500 116.920 66.500 L 121.006 66.500 120.961 62.458 L 120.917 58.417 119.792 58.367 L 118.667 58.318 118.667 61.326 L 118.667 64.333 116.833 64.333 L 115.000 64.333 115.000 61.333 L 115.000 58.333 113.917 58.333 L 112.833 58.333 112.833 58.907 C 112.833 59.449,112.799 59.483,112.208 59.532 C 110.731 59.654,110.333 59.520,110.333 58.899 L 110.333 58.333 108.111 58.333 C 106.889 58.333,105.839 58.383,105.778 58.444 M127.000 60.076 L 127.000 61.819 125.792 61.868 L 124.583 61.917 124.537 64.208 L 124.491 66.500 129.245 66.500 L 134.000 66.500 134.000 67.667 L 134.000 68.833 135.750 68.833 L 137.500 68.833 137.500 67.667 L 137.500 66.500 140.417 66.500 L 143.333 66.500 143.333 63.000 L 143.333 59.500 142.167 59.500 L 141.000 59.500 141.000 58.913 L 141.000 58.325 138.125 58.371 L 135.250 58.417 135.198 58.949 C 135.139 59.562,134.865 59.626,132.708 59.528 L 131.500 59.474 131.500 58.903 L 131.500 58.333 129.250 58.333 L 127.000 58.333 127.000 60.076 M151.778 58.444 C 151.717 58.506,151.667 58.763,151.667 59.017 C 151.667 59.416,151.593 59.486,151.125 59.531 L 150.583 59.583 150.538 63.042 L 150.493 66.500 152.247 66.500 L 154.000 66.500 154.000 64.167 L 154.000 61.833 154.583 61.833 L 155.167 61.833 155.167 64.750 L 155.167 67.667 156.333 67.667 L 157.500 67.667 157.500 64.750 L 157.500 61.833 158.167 61.833 L 158.833 61.833 158.833 64.167 L 158.833 66.500 160.500 66.500 L 162.167 66.500 162.167 63.000 L 162.167 59.500 161.000 59.500 L 159.833 59.500 159.833 58.917 L 159.833 58.333 158.177 58.333 L 156.520 58.333 156.455 58.958 L 156.389 59.583 156.361 58.958 L 156.333 58.333 154.111 58.333 C 152.889 58.333,151.839 58.383,151.778 58.444 M163.500 60.079 L 163.500 61.833 162.917 61.833 L 162.333 61.833 162.333 64.167 L 162.333 66.500 166.417 66.500 L 170.500 66.500 170.500 63.000 L 170.500 59.500 169.927 59.500 C 169.403 59.500,169.350 59.454,169.302 58.958 L 169.250 58.417 166.375 58.371 L 163.500 58.325 163.500 60.079 M219.000 60.079 L 219.000 61.833 218.417 61.833 L 217.833 61.833 217.833 64.167 L 217.833 66.500 221.917 66.500 L 226.000 66.500 226.000 65.917 C 226.000 65.361,226.028 65.333,226.583 65.333 C 227.139 65.333,227.167 65.361,227.167 65.917 L 227.167 66.500 229.583 66.500 L 232.000 66.500 232.000 67.083 L 232.000 67.667 233.083 67.667 L 234.167 67.667 234.167 66.000 L 234.167 64.333 231.833 64.333 L 229.500 64.333 229.500 63.083 L 229.500 61.833 231.833 61.833 L 234.167 61.833 234.167 60.079 L 234.167 58.325 231.292 58.371 L 228.417 58.417 228.365 58.949 C 228.320 59.412,228.245 59.487,227.782 59.532 C 227.321 59.577,227.243 59.653,227.199 60.108 C 227.116 60.966,226.038 61.024,225.966 60.174 C 225.922 59.644,225.862 59.578,225.385 59.532 C 224.922 59.487,224.846 59.412,224.801 58.949 L 224.750 58.417 221.875 58.371 L 219.000 58.325 219.000 60.079 M236.667 58.913 C 236.667 59.473,236.640 59.500,236.083 59.500 C 235.528 59.500,235.500 59.528,235.500 60.083 C 235.500 60.639,235.472 60.667,234.917 60.667 L 234.333 60.667 234.333 63.000 L 234.333 65.333 234.917 65.333 C 235.472 65.333,235.500 65.361,235.500 65.917 L 235.500 66.500 238.417 66.500 L 241.333 66.500 241.333 65.427 L 241.333 64.353 240.708 64.288 C 240.365 64.252,240.890 64.210,241.875 64.195 L 243.667 64.167 243.667 61.833 L 243.667 59.500 243.094 59.500 C 242.570 59.500,242.517 59.454,242.469 58.958 L 242.417 58.417 239.542 58.371 L 236.667 58.325 236.667 58.913 M248.500 58.913 C 248.500 59.473,248.473 59.500,247.917 59.500 L 247.333 59.500 247.333 63.000 L 247.333 66.500 249.083 66.500 L 250.833 66.500 250.833 67.083 L 250.833 67.667 252.000 67.667 L 253.167 67.667 253.167 67.083 C 253.167 66.528,253.194 66.500,253.750 66.500 L 254.333 66.500 254.333 65.427 L 254.333 64.353 253.708 64.288 C 253.362 64.252,253.622 64.210,254.292 64.195 L 255.500 64.167 255.500 63.583 C 255.500 63.028,255.528 63.000,256.083 63.000 L 256.667 63.000 256.667 65.333 L 256.667 67.667 257.833 67.667 L 259.000 67.667 259.000 64.750 L 259.000 61.833 260.833 61.833 L 262.667 61.833 262.667 64.750 L 262.667 67.667 263.750 67.667 L 264.833 67.667 264.833 63.583 L 264.833 59.500 263.667 59.500 L 262.500 59.500 262.500 58.913 L 262.500 58.325 259.625 58.371 L 256.750 58.417 256.702 59.591 L 256.653 60.765 256.086 60.699 C 255.588 60.641,255.512 60.568,255.468 60.108 C 255.423 59.653,255.346 59.577,254.885 59.532 C 254.422 59.487,254.346 59.412,254.301 58.949 L 254.250 58.417 251.375 58.371 L 248.500 58.325 248.500 58.913 M270.944 58.444 C 270.883 58.506,270.833 58.763,270.833 59.017 C 270.833 59.416,270.760 59.486,270.292 59.531 L 269.750 59.583 269.704 61.870 L 269.657 64.157 272.037 64.209 L 274.417 64.260 272.042 64.297 L 269.667 64.333 269.667 66.000 L 269.667 67.667 270.833 67.667 L 272.000 67.667 272.000 67.083 L 272.000 66.500 274.333 66.500 L 276.667 66.500 276.667 65.917 C 276.667 65.347,276.683 65.333,277.333 65.333 C 277.984 65.333,278.000 65.347,278.000 65.917 L 278.000 66.500 283.833 66.500 L 289.667 66.500 289.667 64.167 L 289.667 61.833 290.917 61.833 L 292.167 61.833 292.167 64.167 L 292.167 66.500 293.833 66.500 L 295.500 66.500 295.500 63.583 L 295.500 60.667 294.917 60.667 C 294.361 60.667,294.333 60.639,294.333 60.083 C 294.333 59.528,294.306 59.500,293.750 59.500 C 293.194 59.500,293.167 59.473,293.167 58.913 L 293.167 58.325 290.292 58.371 L 287.417 58.417 287.366 58.941 C 287.321 59.402,287.245 59.474,286.741 59.533 C 285.506 59.677,285.023 59.516,284.968 58.941 L 284.917 58.417 282.042 58.371 L 279.167 58.325 279.167 60.079 L 279.167 61.833 278.583 61.833 C 278.028 61.833,278.000 61.861,278.000 62.417 C 278.000 62.986,277.984 63.000,277.333 63.000 L 276.667 63.000 276.667 60.667 L 276.667 58.333 273.861 58.333 C 272.318 58.333,271.006 58.383,270.944 58.444 M309.833 60.079 L 309.833 61.833 309.250 61.833 L 308.667 61.833 308.667 64.167 L 308.667 66.500 312.753 66.500 L 316.840 66.500 316.795 63.042 L 316.750 59.583 316.218 59.532 C 315.755 59.487,315.680 59.412,315.635 58.949 L 315.583 58.417 312.708 58.371 L 309.833 58.325 309.833 60.079 M139.833 63.083 L 139.833 64.333 138.667 64.333 L 137.500 64.333 137.500 63.083 L 137.500 61.833 138.667 61.833 L 139.833 61.833 139.833 63.083 M210.667 63.083 L 210.667 64.333 208.833 64.333 L 207.000 64.333 207.000 63.083 L 207.000 61.833 208.833 61.833 L 210.667 61.833 210.667 63.083 M305.167 63.083 L 305.167 64.333 303.927 64.333 L 302.687 64.333 302.635 63.708 C 302.607 63.365,302.610 62.802,302.643 62.458 L 302.702 61.833 303.934 61.833 L 305.167 61.833 305.167 63.083 M324.000 63.083 L 324.000 64.333 322.167 64.333 L 320.333 64.333 320.333 63.083 L 320.333 61.833 322.167 61.833 L 324.000 61.833 324.000 63.083 M129.963 64.288 C 129.621 64.324,129.021 64.324,128.629 64.289 C 128.237 64.254,128.517 64.224,129.250 64.224 C 129.983 64.223,130.304 64.252,129.963 64.288 M167.381 64.289 C 166.903 64.323,166.078 64.323,165.548 64.290 C 165.017 64.257,165.408 64.229,166.417 64.229 C 167.425 64.229,167.859 64.256,167.381 64.289 M222.792 64.290 C 222.265 64.323,221.402 64.323,220.875 64.290 C 220.348 64.257,220.779 64.230,221.833 64.230 C 222.887 64.230,223.319 64.257,222.792 64.290 M282.958 64.290 C 282.431 64.323,281.569 64.323,281.042 64.290 C 280.515 64.257,280.946 64.230,282.000 64.230 C 283.054 64.230,283.485 64.257,282.958 64.290 M313.625 64.290 C 313.098 64.323,312.235 64.323,311.708 64.290 C 311.181 64.257,311.612 64.230,312.667 64.230 C 313.721 64.230,314.152 64.257,313.625 64.290 " stroke="none" fill="#ffffff" fill-rule="evenodd"></path></g></svg>